<?xml version="1.0" encoding="UTF-8" standalone="no"?>
<!DOCTYPE svg PUBLIC "-//W3C//DTD SVG 1.1//EN" "http://www.w3.org/Graphics/SVG/1.1/DTD/svg11.dtd">
<svg width="100%" height="100%" viewBox="0 0 100 100" version="1.1" xmlns="http://www.w3.org/2000/svg" xmlns:xlink="http://www.w3.org/1999/xlink" xml:space="preserve" xmlns:serif="http://www.serif.com/" style="fill-rule:evenodd;clip-rule:evenodd;stroke-linejoin:round;stroke-miterlimit:2;">
    <g transform="matrix(1,0,0,1,0,-1900)">
        <g id="_-" serif:id="[" transform="matrix(0.078125,0,0,0.138889,0,1900)">
            <rect x="0" y="0" width="1280" height="720" style="fill:none;"/>
            <g transform="matrix(12.8,0,0,7.2,0,-13680)">
                <path d="M60.656,1902.98L57.191,1903.15L53.656,1903.04L60.447,1901.72L55.864,1900.4L42.688,1903.9L39.156,1904.08L39.156,1917.82L38.906,1921.29L37.19,1917.39L35.656,1920.1L39.156,1938.88L38.156,1987.38L38.656,1995.88L61.656,1995.88L62.174,1993.62L59.37,1992.66L61.656,1991.01L61.656,1988.88L48.156,1988.88L48.013,1973.92L50.47,1975.46L52.407,1979.58L54.501,1978.33L53.113,1974.38L55.305,1969.87L53.389,1968.11L51.169,1972.24L48.322,1971.09L48.156,1962.88L47.656,1921.38L47.656,1911.88L57.601,1912.03L57.828,1915.85L60.458,1916.05L60.856,1912.08L60.656,1902.98Z" style="fill:rgb(122,135,54);"/>
            </g>
        </g>
    </g>
</svg>
