<?xml version="1.0" encoding="utf-8"?>
<!-- Generator: Adobe Illustrator 21.0.2, SVG Export Plug-In . SVG Version: 6.00 Build 0)  -->
<svg version="1.1" xmlns="http://www.w3.org/2000/svg" xmlns:xlink="http://www.w3.org/1999/xlink" x="0px" y="0px"
	 viewBox="0 0 360 208.7" style="enable-background:new 0 0 360 208.7;" xml:space="preserve">
<style type="text/css">
	.st0{fill:#C9552B;}
	.st1{fill:#2C120E;}
	.st2{fill:#142C24;}
	.st3{opacity:0.8;fill:#393F1F;}
	.st4{fill:#101413;}
	.st5{opacity:0.5;fill:#142C24;}
	.st6{opacity:0.2;fill:#393F1F;}
	.st7{opacity:0.5;fill:#101413;}
	.st8{opacity:0.2;fill:#142C24;}
	.st9{opacity:0.5;fill:#393F1F;}
	.st10{opacity:0.2;fill:#101413;}
	.st11{opacity:0.8;fill:#142C24;}
	.st12{fill:#393F1F;}
	.st13{opacity:0.8;fill:#101413;}
	.st14{fill:#222413;}
	.st15{fill:#F3BB4F;}
	.st16{fill:#78392A;}
	.st17{fill:#969696;}
	.st18{fill:#1E0E0D;}
	.st19{fill:#A65245;}
	.st20{fill:#481D14;}
	.st21{fill:#7A8636;}
	.st22{fill:none;stroke:#F3BB4F;stroke-miterlimit:10;}
	.st23{fill:#EF4136;}
	.st24{opacity:0.4;fill:#4C2018;}
	.st25{fill:#4C2018;}
	.st26{opacity:0.25;fill:#1E0E0D;}
	.st27{fill:#666766;}
	.st28{fill:#F48461;}
	.st29{opacity:0.5;fill:#2C120E;}
	.st30{fill:#FCD6CC;}
	.st31{fill:#1B1B1B;}
	.st32{fill:#AF2024;}
	.st33{fill:#512118;}
	.st34{fill:#F7EC1C;}
	.st35{fill:#7A1B22;}
	.st36{opacity:0.4;fill:#1E0E0D;}
	.st37{fill:#A57060;}
	.st38{fill:#CE8062;}
	.st39{fill:#59B661;}
	.st40{fill:#89C97C;}
	.st41{fill:#2D2D2D;}
	.st42{fill:#EFB1AC;}
	.st43{fill:#D6D6D6;}
	.st44{fill:#FFFFFF;}
	.st45{fill:#BCBCBC;}
	.st46{fill:#332222;}
	.st47{fill:#1C0D0D;}
	.st48{fill:#3E1128;}
	.st49{fill:#6D103D;}
	.st50{fill:#B03D79;}
	.st51{fill:#F6D6D5;}
	.st52{fill:#853A23;}
	.st53{fill:#BC1E70;}
	.st54{display:none;}
	.st55{display:inline;fill:#606161;}
	.st56{display:inline;fill:none;stroke:#EF467A;stroke-width:4;stroke-miterlimit:10;}
</style>
<g id="Ideeen">
</g>
<g id="Dark_Background">
</g>
<g id="Bosachtergrond">
</g>
<g id="Beige_Overlay">
</g>
<g id="Takken__x28_oa_x29_">
	
		<rect x="15.9" y="174.5" transform="matrix(0.7071 0.7071 -0.7071 0.7071 130.5667 38.8316)" class="st17" width="5.1" height="5.1"/>
	<polygon class="st18" points="360.7,209.6 360.7,13.3 346.6,2.4 267.2,87.2 154.3,114.4 94.2,162.4 0,189.1 0.3,209.1 	"/>
	<polygon class="st19" points="348.3,152 329.3,153 332.9,112.6 343.7,112.6 	"/>
	<polygon class="st24" points="330.6,138.6 332.9,112.6 343.7,112.6 346.7,138.5 338.6,136.2 	"/>
	<path class="st16" d="M361,48.8l19.5-20.6L344,0l-84,74.7l-113,31l-62.6,51L0,183.7l-52,18l6.3,7l33.7-6l12,30l13.6-6v-27l94.3-12
		l78.8-45l43.1-10.3L180,194.7l-95.6,27l9.7,11l92.8-24l43.1,15l44.1-4v-11l-49,1l-10.2-15l0,0l4.1,6l78.1-18l47-66.4l25,79.4
		l34-21.2L361,48.8z M289,161.7l-53,12.8l61-58.2l23.2-24.5L289,161.7z"/>
	<polygon class="st19" points="324.7,150.4 301.1,185.2 297,205.5 320,211 363.6,211 361.6,175.6 351.8,148.7 339,142.6 	"/>
	<polygon class="st25" points="186.8,142.7 229.5,132.5 239.1,119.7 182.6,126.2 163.6,139 106.6,178.8 36.1,191.8 0.2,199.7 
		9.7,228.5 13.7,226.7 13.7,199.7 108,187.7 	"/>
	<polygon class="st25" points="322.4,79.9 320.2,91.9 302.1,111.6 281.8,131.6 236,174.6 225.1,177.6 285.4,117.9 	"/>
	<polygon class="st25" points="221.1,204.7 191.9,211 181.6,210.5 180.3,208.7 204.4,200.9 247.9,191.2 283.1,180.3 297,176.4 
		312,154.5 337.6,119.7 343.7,101.2 344,116.4 297,182.7 	"/>
	<polygon class="st25" points="344,110.2 373.3,193.1 369,195.7 344,116.4 	"/>
	<polyline class="st18" points="244.2,174.1 247.9,172.6 253.1,174.6 257.3,173.6 257.3,175.2 253.4,176.4 248.3,174.5 244.2,176.4 
		244.2,174.1 	"/>
	<polygon class="st26" points="15.3,178.8 14.1,180.6 18.4,181.6 23.4,187.4 28.3,184.2 36.4,180.6 44.9,179.4 53.7,178.8 
		56.9,174.6 56,169.9 52,167.1 	"/>
</g>
<g id="Animales">
	
		<rect x="27.8" y="153.6" transform="matrix(0.7071 0.7071 -0.7071 0.7071 120.9288 24.3189)" class="st27" width="6.7" height="9"/>
	<polygon class="st26" points="244.9,78.9 222.6,85 243,90.6 264.3,102.3 280.5,86.4 280.5,78.5 286.8,69.4 294.6,70.2 305.8,58.2 
		305.4,50.9 310.9,39 303.5,36 	"/>
	<polygon class="st26" points="130.4,208.7 177.6,208.7 188.9,204.7 207.9,199.2 222.8,193.1 229.6,191.8 240.6,189.8 242.3,183.7 
		226.6,179.4 187.6,195.5 132.8,201.2 126.1,205.9 	"/>
	
		<rect x="279.1" y="21.9" transform="matrix(0.7071 0.7071 -0.7071 0.7071 110.9669 -196.6195)" class="st0" width="27.5" height="27.5"/>
	
		<rect x="18.2" y="161.1" transform="matrix(0.7071 0.7071 -0.7071 0.7071 128.047 30.621)" class="st17" width="17.6" height="17.6"/>
	
		<rect x="217.8" y="165.3" transform="matrix(0.7071 0.7071 -0.7071 0.7071 189.4895 -109.262)" class="st32" width="17.6" height="17.6"/>
	<polygon class="st17" points="27.8,177.3 27.1,172.6 53.5,163 56,173.6 	"/>
	
		<rect x="20.9" y="179.8" transform="matrix(0.7071 0.7071 -0.7071 0.7071 135.811 36.8306)" class="st17" width="5.1" height="5.1"/>
	
		<rect x="49.4" y="172" transform="matrix(0.7071 0.7071 -0.7071 0.7071 138.6444 14.3831)" class="st17" width="5.1" height="5.1"/>
	
		<rect x="29.4" y="153.5" transform="matrix(0.7071 0.7071 -0.7071 0.7071 121.8642 23.0129)" class="st17" width="7.6" height="10.2"/>
	
		<rect x="287.1" y="52.1" transform="matrix(0.7071 0.7071 -0.7071 0.7071 126.6774 -190.112)" class="st0" width="11.5" height="11.5"/>
	
		<rect x="252.7" y="72.9" transform="matrix(0.7071 0.7071 -0.7071 0.7071 135.3066 -161.3286)" class="st0" width="19.5" height="19.5"/>
	
		<rect x="251.4" y="37.8" transform="matrix(0.7071 0.7071 -0.7071 0.7071 122.4119 -168.9889)" class="st0" width="27.5" height="50.8"/>
	
		<rect x="280.6" y="15.6" transform="matrix(0.7071 0.7071 -0.7071 0.7071 99.3655 -196.4158)" class="st0" width="12.3" height="12.3"/>
	<polygon class="st0" points="237.5,71.5 229.3,63.3 229.3,37.9 240.4,10.4 258.5,0 271.3,15.1 270.1,32.2 252,47.9 246.4,58.2 
		246.8,62.3 	"/>
	
		<rect x="291" y="25.9" transform="matrix(0.7071 0.7071 -0.7071 0.7071 107.2164 -199.6678)" class="st18" width="7.3" height="7.3"/>
	<rect x="306.1" y="33.1" transform="matrix(0.7071 0.7071 -0.7071 0.7071 115.605 -207.8169)" class="st18" width="5" height="5"/>
	<rect x="284" y="19" transform="matrix(0.7071 0.7071 -0.7071 0.7071 99.3655 -196.4158)" class="st28" width="5.5" height="5.5"/>
	
		<rect x="264.8" y="39.1" transform="matrix(0.7071 0.7071 -0.7071 0.7071 113.3564 -178.7455)" class="st29" width="15.3" height="16.8"/>
	<polygon class="st1" points="300,47.9 285,41.9 278.6,30.4 277.1,32 283.4,43.9 298.1,49.8 	"/>
	
		<rect x="263.4" y="36.2" transform="matrix(0.7071 0.7071 -0.7071 0.7071 111.1746 -179.0918)" class="st1" width="16.8" height="16.8"/>
	<polygon class="st1" points="278.6,30.4 274.5,30.4 271.8,32.8 275,36 276.3,33 277.1,32 	"/>
	<g>
		<polygon class="st0" points="267.1,50.5 264.3,47.9 268.1,46.2 268.3,50 		"/>
		<polygon class="st0" points="265.1,46.2 264.3,47.9 268.1,46.2 266.3,45.6 		"/>
		<polygon class="st0" points="265.7,46 265.6,45.2 266.1,44.5 266.3,44.7 266,45.3 266.1,45.8 		"/>
	</g>
	<g>
		<polygon class="st0" points="272,47.9 272.2,45 269.2,46.1 271.1,48.2 		"/>
		<polygon class="st0" points="270.9,44.5 272.2,45 269.2,46.1 269.9,44.9 		"/>
		<polygon class="st0" points="270.5,44.7 270.1,44.3 269.5,44.1 269.4,44.3 269.9,44.5 270.1,44.8 		"/>
	</g>
	<g>
		<polygon class="st0" points="272.8,54 268.5,52.1 272.1,48.6 274,52.8 		"/>
		<polygon class="st0" points="268.7,49.9 268.5,52.1 272.1,48.6 269.9,48.7 		"/>
		<polygon class="st0" points="269.2,49.4 268.9,48.6 269,47.5 269.4,47.6 269.3,48.4 269.6,48.9 		"/>
	</g>
	<g>
		<polygon class="st0" points="274.6,51.9 273.1,49.2 276.5,48.7 275.7,51.8 		"/>
		<polygon class="st0" points="274.1,48.1 273.1,49.2 276.5,48.7 275.2,47.9 		"/>
		<polygon class="st0" points="274.6,48 274.7,47.4 275.3,46.9 275.4,47.2 275,47.5 275,47.9 		"/>
	</g>
	<polygon class="st30" points="53.7,165.3 58.8,165.3 63.2,164.6 65,162.2 65.6,161.7 66.3,161.9 64.3,165 63.5,165.7 59.7,166.4 
		58.3,166.4 53.9,166.2 	"/>
	
		<rect x="25.3" y="168.2" transform="matrix(0.7071 0.7071 -0.7071 0.7071 128.047 30.621)" class="st31" width="3.4" height="3.4"/>
	
		<rect x="15.3" y="168.2" transform="matrix(0.7071 0.7071 -0.7071 0.7071 125.1071 37.7186)" class="st31" width="3.4" height="3.4"/>
	
		<rect x="31.2" y="156" transform="matrix(-0.7071 -0.7071 0.7071 -0.7071 -55.5982 294.3034)" class="st30" width="3.9" height="5.3"/>
	
		<rect x="26.4" y="168.2" transform="matrix(0.7071 0.7071 -0.7071 0.7071 127.3399 30.3281)" class="st30" width="1.4" height="1.4"/>
	<polygon class="st32" points="90.4,212.7 105.6,203.2 129.1,197.9 156.1,197.9 176.5,195.7 202.1,186.8 214.2,174.1 226.6,186.6 
		214.6,191.8 196.9,199.2 175.5,206.6 147.6,208.7 127.9,206.6 107.6,211 	"/>
	
		<rect x="232.4" y="168.2" transform="matrix(1.543594e-13 1 -1 1.543594e-13 412.3636 -64.1576)" class="st32" width="11.8" height="11.8"/>
	<polygon class="st34" points="226.6,174.6 221.3,174.1 226.6,168.8 231.9,174.1 	"/>
	<polygon class="st35" points="204.3,184.6 220.6,189.2 226,186.8 209.1,179.4 	"/>
	<polygon class="st35" points="196.1,188.9 200,197.9 196.9,199.2 192,190.4 	"/>
	<polygon class="st35" points="187.6,202.4 184.2,193.1 180,194.7 183,204 	"/>
	<polygon class="st35" points="170.4,207 169.4,196.5 164.2,197 164.2,207.5 	"/>
	<polygon class="st35" points="153.9,208.3 153.9,197.9 149.6,197.9 147.6,208.7 	"/>
	<polygon class="st35" points="135.8,207.5 137.4,197.9 131.4,197.9 130.1,206.8 	"/>
	<polygon class="st35" points="123.9,207.5 121.2,199.7 115.7,200.9 119.8,208.3 	"/>
	<polygon class="st35" points="100.2,206.6 115.7,208.7 107.6,211 95.3,209.6 	"/>
	<polygon class="st35" points="202.1,186.8 207.4,194.8 211.5,193.1 	"/>
</g>
<g id="Bunnies">
	<polygon class="st16" points="297,205.5 320,211 367.9,211 372.6,199.7 349.9,191.3 321.1,189.2 304.1,195 	"/>
	<g>
		<ellipse class="st36" cx="325.5" cy="195.5" rx="14.5" ry="4.4"/>
		
			<rect x="315.7" y="175.5" transform="matrix(0.9423 0.3347 -0.3347 0.9423 78.5764 -96.3144)" class="st37" width="6" height="8.6"/>
		
			<rect x="318.2" y="191.6" transform="matrix(0.7071 0.7071 -0.7071 0.7071 230.6492 -169.7369)" class="st37" width="4" height="4"/>
		<rect x="329.3" y="193.1" class="st37" width="6.6" height="4"/>
		<polygon class="st38" points="322.4,194.8 322.4,183.1 336,185.3 338.6,193.4 338.5,194.8 		"/>
		
			<rect x="312.6" y="181" transform="matrix(0.9423 0.3347 -0.3347 0.9423 80.9151 -95.8267)" class="st38" width="11.7" height="11.7"/>
		<g>
			<g>
				<path class="st39" d="M315.3,175.5l-0.5-0.3c-0.2,1-0.6,2-1.1,3c0,0,2.7,3.4,6,4.3c2.7,0.8,6.5-0.2,6.5-0.2
					c0.9-2.2,1.9-4.3,3.1-6.4c0.2-0.4,0.5-0.9,1-0.9l0.2-0.1c-1.8,0.4-3.6,1.2-5,2.5l0.1-0.3c0.1-0.7,0.1-1.4-0.2-2l-0.4-0.3
					c-0.4,1.1-1,2.2-1.6,3.3l-0.3-0.6c-0.3-1.4-0.6-2.8-0.7-4.2c0-0.2,0-0.3,0-0.5c0.1-0.1,0.2-0.3,0.4-0.3l-1.2,0.7
					c-1.2,0.6-2.4,1.3-3.4,2.2c-1,0.9-1.7,1-2.1,2.3C316,177.8,315.8,176.6,315.3,175.5z"/>
			</g>
			<g>
				<path class="st40" d="M326.6,179.7l0.6,0.1c-0.5,1-0.8,2-1,3c0,0-4.2,0.9-7.3-0.4c-2.6-1.1-5-4.2-5-4.2c0.7-2.3,1.2-4.6,1.6-6.9
					c0.1-0.5,0.1-1-0.3-1.3l-0.1-0.2c1.2,1.4,2.1,3.2,2.4,5.1l0.1-0.2c0.3-0.6,0.8-1.1,1.4-1.4l0.5,0.1c-0.4,1.2-0.6,2.3-0.8,3.6
					l0.6-0.3c1.1-0.9,2.2-1.8,3.2-2.8c0.1-0.1,0.2-0.2,0.3-0.4c0-0.2,0-0.3-0.1-0.4l0.5,1.3c0.5,1.2,1,2.5,1.3,3.8
					c0.2,1.3,0.7,1.8,0.2,3.1C324.6,181,325.5,180.2,326.6,179.7z"/>
			</g>
		</g>
		
			<rect x="317.8" y="176.5" transform="matrix(0.9423 0.3347 -0.3347 0.9423 78.8541 -96.9848)" class="st38" width="6" height="7.6"/>
		
			<rect x="322.1" y="192.6" transform="matrix(0.7071 0.7071 -0.7071 0.7071 232.5506 -172.1713)" class="st38" width="4" height="4"/>
		
			<rect x="337" y="190.2" transform="matrix(0.7071 0.7071 -0.7071 0.7071 234.7604 -183.2184)" class="st38" width="3" height="3"/>
		<rect x="332" y="193.5" class="st38" width="6.6" height="4"/>
		
			<rect x="317.1" y="185.5" transform="matrix(0.9423 0.3347 -0.3347 0.9423 80.9151 -95.8267)" class="st41" width="2.8" height="2.8"/>
		
			<rect x="311.2" y="189.1" transform="matrix(0.9423 0.3347 -0.3347 0.9423 81.5686 -93.4961)" class="st41" width="1.7" height="1.7"/>
		
			<rect x="319" y="177.9" transform="matrix(0.9423 0.3347 -0.3347 0.9423 78.8144 -97.0071)" class="st42" width="3.7" height="4.5"/>
	</g>
	<ellipse class="st36" cx="343.5" cy="202.3" rx="14.5" ry="4.4"/>
	<g>
		
			<rect x="337.9" y="179.3" transform="matrix(0.7071 0.7071 -0.7071 0.7071 229.6514 -187.3015)" class="st43" width="6" height="8.6"/>
		
			<rect x="335.1" y="197.6" transform="matrix(0.7071 0.7071 -0.7071 0.7071 239.8158 -179.8873)" class="st43" width="4" height="4"/>
		<rect x="345" y="199.2" class="st43" width="6.6" height="4"/>
		<polygon class="st44" points="337.1,200.9 337.1,189.2 350.6,191.4 353.3,199.5 353.2,200.9 		"/>
		
			<rect x="339.9" y="180.3" transform="matrix(0.7071 0.7071 -0.7071 0.7071 230.9443 -188.4228)" class="st44" width="6" height="8.6"/>
		
			<rect x="331.8" y="183.9" transform="matrix(0.7071 0.7071 -0.7071 0.7071 233.1155 -183.181)" class="st44" width="11.7" height="11.7"/>
		
			<rect x="335.7" y="198.9" transform="matrix(0.7071 0.7071 -0.7071 0.7071 240.9709 -179.9273)" class="st44" width="4" height="4"/>
		
			<rect x="351.7" y="196.4" transform="matrix(0.7071 0.7071 -0.7071 0.7071 243.3828 -191.7821)" class="st44" width="3" height="3"/>
		<rect x="346.6" y="199.7" class="st44" width="6.6" height="4"/>
		
			<rect x="336.3" y="188.4" transform="matrix(0.7071 0.7071 -0.7071 0.7071 233.1155 -183.181)" class="st41" width="2.8" height="2.8"/>
		
			<rect x="329.7" y="189" transform="matrix(0.7071 0.7071 -0.7071 0.7071 231.0284 -178.1422)" class="st41" width="1.7" height="1.7"/>
	</g>
	<g>
		<g>
			<path class="st39" d="M335.4,181.3l-0.2-0.1c0,0.4,0,0.9-0.2,1.3c0,0,1.4,1.1,2.8,1.1c1.2,0,2.5-0.7,2.5-0.7
				c0.1-0.9,0.3-1.9,0.6-2.8c0-0.2,0.1-0.4,0.3-0.4l0.1-0.1c-0.7,0.3-1.3,0.8-1.7,1.5l0-0.1c0-0.3-0.1-0.5-0.3-0.8l-0.2-0.1
				c0,0.5-0.2,1-0.3,1.4l-0.2-0.2c-0.3-0.5-0.5-1-0.7-1.6c0-0.1,0-0.1,0-0.2c0-0.1,0.1-0.1,0.1-0.1l-0.4,0.4
				c-0.4,0.4-0.8,0.7-1.1,1.2c-0.3,0.5-0.6,0.5-0.6,1.1C335.9,182.1,335.7,181.7,335.4,181.3z"/>
		</g>
		<g>
			<path class="st40" d="M340.3,181.8l0.2,0c-0.1,0.4-0.1,0.9-0.1,1.3c0,0-1.6,0.8-2.9,0.6c-1.1-0.2-2.4-1.2-2.4-1.2
				c0-1,0-1.9-0.1-2.9c0-0.2-0.1-0.4-0.2-0.5l-0.1-0.1c0.6,0.4,1.1,1.1,1.4,1.8l0-0.1c0.1-0.3,0.2-0.5,0.4-0.7l0.2,0
				c0,0.5,0,1,0.1,1.5l0.2-0.2c0.4-0.5,0.7-0.9,1-1.4c0-0.1,0.1-0.1,0.1-0.2c0-0.1,0-0.1-0.1-0.2l0.3,0.5c0.3,0.4,0.7,0.9,0.9,1.4
				c0.2,0.5,0.5,0.6,0.4,1.2C339.6,182.5,339.9,182.1,340.3,181.8z"/>
		</g>
	</g>
</g>
<g id="Rode_panda">
</g>
<g id="Tekst">
</g>
<g id="Grijze_vierkanten" class="st54">
</g>
</svg>
