<?xml version="1.0" encoding="utf-8"?>
<!-- Generator: Adobe Illustrator 21.0.2, SVG Export Plug-In . SVG Version: 6.00 Build 0)  -->
<svg version="1.1" xmlns="http://www.w3.org/2000/svg" xmlns:xlink="http://www.w3.org/1999/xlink" x="0px" y="0px"
	 viewBox="0 0 350.3 120.1" style="enable-background:new 0 0 350.3 120.1;" xml:space="preserve">
<style type="text/css">
	.st0{fill:#C9552B;}
	.st1{fill:#2C120E;}
	.st2{fill:#142C24;}
	.st3{fill:#393F1F;}
	.st4{fill:#101413;}
	.st5{fill:#222413;}
	.st6{opacity:0.8;fill:#393F1F;}
	.st7{opacity:0.5;fill:#142C24;}
	.st8{opacity:0.2;fill:#393F1F;}
	.st9{opacity:0.5;fill:#101413;}
	.st10{opacity:0.2;fill:#142C24;}
	.st11{opacity:0.5;fill:#393F1F;}
	.st12{opacity:0.2;fill:#101413;}
	.st13{opacity:0.8;fill:#142C24;}
	.st14{opacity:0.8;fill:#101413;}
	.st15{fill:#F3BB4F;}
	.st16{fill:#78392A;}
	.st17{fill:#1E0E0D;}
	.st18{fill:#A65245;}
	.st19{fill:#481D14;}
	.st20{fill:#7A8636;}
	.st21{fill:none;stroke:#F3BB4F;stroke-miterlimit:10;}
	.st22{fill:#EF4136;}
	.st23{fill:#666766;}
	.st24{opacity:0.25;fill:#1E0E0D;}
	.st25{fill:#969696;}
	.st26{fill:#F48461;}
	.st27{opacity:0.5;fill:#2C120E;}
	.st28{fill:#FCD6CC;}
	.st29{fill:#1B1B1B;}
	.st30{fill:#512118;}
	.st31{fill:#BCBCBC;}
	.st32{fill:#332222;}
	.st33{fill:#FFFFFF;}
	.st34{fill:#1C0D0D;}
	.st35{fill:#3E1128;}
	.st36{fill:#6D103D;}
	.st37{fill:#B03D79;}
	.st38{fill:#F6D6D5;}
	.st39{fill:#853A23;}
	.st40{fill:#BC1E70;}
	.st41{fill:#606161;}
	.st42{fill:none;stroke:#EF467A;stroke-width:4;stroke-miterlimit:10;}
</style>
<g id="Ideeen">
</g>
<g id="Dark_Background">
</g>
<g id="Bosachtergrond">
</g>
<g id="Beige_Overlay">
	<polygon class="st16" points="350.3,119.3 333.7,106 334.7,61.3 336.7,28 308.7,19.3 260,24 219,19.3 165,18.7 110,16.5 56.7,15.3 
		24,13.5 0,21.3 0,17.3 2.7,13.5 0,7.3 2.7,3.9 6.3,6.9 28,7.3 88.7,7.3 149.3,7.3 212,7.3 294.7,7.3 350.3,7.3 	"/>
	<polygon class="st16" points="333.7,106 336,120.1 350.3,120.1 349.9,109.5 	"/>
	<polygon class="st0" points="349.7,22 311.7,12.3 260,15 219,11.3 165,11.7 111,9.5 56.7,10.3 24,9.5 6.2,8.9 2.7,3.9 6.3,6.9 
		28,7.3 88.7,7.3 149.3,7.3 212,7.3 294.7,7.3 326.7,5.3 334.6,0.2 350.3,7.3 	"/>
</g>
<g id="Takken__x28_oa_x29_">
</g>
<g id="Animales">
</g>
<g id="Rode_panda">
</g>
<g id="Tekst">
</g>
<g id="Grijze_vierkanten">
</g>
</svg>
