<?xml version="1.0" encoding="utf-8"?>
<!-- Generator: Adobe Illustrator 21.0.2, SVG Export Plug-In . SVG Version: 6.00 Build 0)  -->
<svg version="1.1" xmlns="http://www.w3.org/2000/svg" xmlns:xlink="http://www.w3.org/1999/xlink" x="0px" y="0px"
	 viewBox="0 0 364.8 191.7" style="enable-background:new 0 0 364.8 191.7;" xml:space="preserve">
<style type="text/css">
	.st0{fill:#B05531;}
	.st1{fill:#2B1916;}
	.st2{fill:#222F29;}
	.st3{opacity:0.8;fill:#3D4126;}
	.st4{fill:#191B1A;}
	.st5{opacity:0.5;fill:#222F29;}
	.st6{opacity:0.2;fill:#3D4126;}
	.st7{opacity:0.5;fill:#191B1A;}
	.st8{opacity:0.2;fill:#222F29;}
	.st9{opacity:0.5;fill:#3D4126;}
	.st10{opacity:0.2;fill:#191B1A;}
	.st11{opacity:0.8;fill:#222F29;}
	.st12{fill:#3D4126;}
	.st13{opacity:0.8;fill:#191B1A;}
	.st14{fill:#27291B;}
	.st15{fill:#E4B957;}
	.st16{fill:#6B3B2F;}
	.st17{fill:#201514;}
	.st18{fill:#925347;}
	.st19{fill:#41221B;}
	.st20{fill:#7C853F;}
	.st21{fill:none;stroke:#E4B957;stroke-miterlimit:10;}
	.st22{fill:#CF4339;}
	.st23{fill:#666666;}
	.st24{opacity:0.25;fill:#201514;}
	.st25{fill:#949494;}
	.st26{fill:#DB8363;}
	.st27{opacity:0.5;fill:#2B1916;}
	.st28{fill:#F2D5CB;}
	.st29{fill:#212121;}
	.st30{fill:#49261F;}
	.st31{fill:#BBBABA;}
	.st32{fill:#322727;}
	.st33{fill:#FFFFFF;}
	.st34{fill:#1E1415;}
	.st35{fill:#38182C;}
	.st36{fill:#5E173E;}
	.st37{fill:#994077;}
	.st38{fill:#EDD5D4;}
	.st39{fill:#753C29;}
	.st40{fill:#A1236D;}
	.st41{display:none;}
	.st42{display:inline;fill:#606161;}
	.st43{display:inline;fill:none;stroke:#CF4777;stroke-width:4;stroke-miterlimit:10;}
</style>
<g id="Ideeen">
</g>
<g id="Dark_Background">
</g>
<g id="Bosachtergrond">
	<g>
		<circle class="st2" cx="-11" cy="98.7" r="21.6"/>
		<circle class="st3" cx="16" cy="117.7" r="27.1"/>
		<circle class="st4" cx="32.3" cy="98.7" r="27.1"/>
		<circle class="st5" cx="35" cy="146.4" r="21.6"/>
		<circle class="st6" cx="7.9" cy="165.4" r="27.1"/>
		<circle class="st7" cx="-8.4" cy="146.4" r="27.1"/>
		<circle class="st8" cx="62.1" cy="165.4" r="21.6"/>
		<circle class="st9" cx="89.2" cy="146.4" r="27.1"/>
		<circle class="st10" cx="105.5" cy="165.4" r="27.1"/>
		<circle class="st11" cx="108.2" cy="117.7" r="21.6"/>
		<circle class="st12" cx="81.1" cy="98.7" r="27.1"/>
		<circle class="st13" cx="64.8" cy="117.7" r="27.1"/>
		<circle class="st2" cx="124.1" cy="98.7" r="21.6"/>
		<circle class="st3" cx="151.1" cy="117.7" r="27.1"/>
		<circle class="st4" cx="167.5" cy="98.7" r="27.1"/>
		<circle class="st5" cx="170.1" cy="146.4" r="21.6"/>
		<circle class="st6" cx="143" cy="165.4" r="27.1"/>
		<circle class="st7" cx="126.7" cy="146.4" r="27.1"/>
		<circle class="st8" cx="197.2" cy="165.4" r="21.6"/>
		<circle class="st9" cx="224.3" cy="146.4" r="27.1"/>
		<circle class="st10" cx="240.6" cy="165.4" r="27.1"/>
		<circle class="st11" cx="243.3" cy="117.7" r="21.6"/>
		<circle class="st12" cx="216.2" cy="98.7" r="27.1"/>
		<circle class="st13" cx="199.9" cy="117.7" r="27.1"/>
		<circle class="st2" cx="254.7" cy="98.7" r="21.6"/>
		<circle class="st3" cx="281.8" cy="117.7" r="27.1"/>
		<circle class="st4" cx="298.1" cy="98.7" r="27.1"/>
		<circle class="st5" cx="300.7" cy="146.4" r="21.6"/>
		<circle class="st6" cx="273.6" cy="165.4" r="27.1"/>
		<circle class="st7" cx="257.3" cy="146.4" r="27.1"/>
		<circle class="st8" cx="327.9" cy="165.4" r="21.6"/>
		<circle class="st9" cx="354.9" cy="146.4" r="27.1"/>
		<circle class="st10" cx="371.2" cy="165.4" r="27.1"/>
		<circle class="st11" cx="373.9" cy="117.7" r="21.6"/>
		<circle class="st12" cx="346.8" cy="98.7" r="27.1"/>
		<circle class="st13" cx="330.5" cy="117.7" r="27.1"/>
	</g>
	<g>
		<circle class="st2" cx="-11" cy="6.2" r="21.6"/>
		<circle class="st12" cx="16" cy="25.2" r="27.1"/>
		<circle class="st4" cx="32.3" cy="6.2" r="27.1"/>
		<circle class="st2" cx="35" cy="54" r="21.6"/>
		<circle class="st12" cx="7.9" cy="73" r="27.1"/>
		<circle class="st4" cx="-8.4" cy="54" r="27.1"/>
		<circle class="st2" cx="62.1" cy="71" r="21.6"/>
		<circle class="st12" cx="89.2" cy="54" r="27.1"/>
		<circle class="st4" cx="105.5" cy="73" r="27.1"/>
		<circle class="st2" cx="108.2" cy="25.2" r="21.6"/>
		<circle class="st12" cx="81.1" cy="6.2" r="27.1"/>
		<circle class="st14" cx="64.8" cy="25.2" r="27.1"/>
		<circle class="st2" cx="124.1" cy="6.2" r="21.6"/>
		<circle class="st12" cx="151.1" cy="25.2" r="27.1"/>
		<circle class="st4" cx="167.5" cy="6.2" r="27.1"/>
		<circle class="st2" cx="170.1" cy="54" r="21.6"/>
		<circle class="st12" cx="143" cy="73" r="27.1"/>
		<circle class="st14" cx="126.7" cy="54" r="27.1"/>
		<circle class="st2" cx="197.2" cy="71" r="21.6"/>
		<circle class="st12" cx="224.3" cy="54" r="27.1"/>
		<circle class="st4" cx="240.6" cy="73" r="27.1"/>
		<circle class="st2" cx="243.3" cy="25.2" r="21.6"/>
		<circle class="st12" cx="216.2" cy="6.2" r="27.1"/>
		<circle class="st14" cx="199.9" cy="25.2" r="27.1"/>
		<circle class="st2" cx="254.7" cy="6.2" r="21.6"/>
		<circle class="st12" cx="281.8" cy="25.2" r="27.1"/>
		<circle class="st4" cx="298.1" cy="6.2" r="27.1"/>
		<circle class="st2" cx="300.7" cy="54" r="21.6"/>
		<circle class="st12" cx="273.6" cy="73" r="27.1"/>
		<circle class="st14" cx="257.3" cy="54" r="27.1"/>
		<circle class="st2" cx="327.9" cy="71" r="21.6"/>
		<circle class="st12" cx="354.9" cy="54" r="27.1"/>
		<circle class="st4" cx="371.2" cy="73" r="27.1"/>
		<circle class="st2" cx="373.9" cy="25.2" r="21.6"/>
		<circle class="st12" cx="346.8" cy="6.2" r="27.1"/>
		<circle class="st14" cx="330.5" cy="25.2" r="27.1"/>
	</g>
</g>
<g id="Beige_Overlay">
</g>
<g id="Takken__x28_oa_x29_">
</g>
<g id="Animales">
</g>
<g id="Rode_panda">
</g>
<g id="Tekst">
</g>
<g id="Grijze_vierkanten" class="st41">
</g>
</svg>
