<?xml version="1.0" encoding="utf-8"?>
<!-- Generator: Adobe Illustrator 21.0.2, SVG Export Plug-In . SVG Version: 6.00 Build 0)  -->
<svg version="1.1" xmlns="http://www.w3.org/2000/svg" xmlns:xlink="http://www.w3.org/1999/xlink" x="0px" y="0px"
	 viewBox="0 0 61.3 62.8" style="enable-background:new 0 0 61.3 62.8;" xml:space="preserve">
<style type="text/css">
	.st0{fill:#C9552B;}
	.st1{fill:#2C120E;}
	.st2{fill:#142C24;}
	.st3{fill:#393F1F;}
	.st4{fill:#101413;}
	.st5{fill:#222413;}
	.st6{opacity:0.8;fill:#393F1F;}
	.st7{opacity:0.5;fill:#142C24;}
	.st8{opacity:0.2;fill:#393F1F;}
	.st9{opacity:0.5;fill:#101413;}
	.st10{opacity:0.2;fill:#142C24;}
	.st11{opacity:0.5;fill:#393F1F;}
	.st12{opacity:0.2;fill:#101413;}
	.st13{opacity:0.8;fill:#142C24;}
	.st14{opacity:0.8;fill:#101413;}
	.st15{fill:#F3BB4F;}
	.st16{fill:#78392A;}
	.st17{fill:#1E0E0D;}
	.st18{fill:#A65245;}
	.st19{fill:#481D14;}
	.st20{fill:#7A8636;}
	.st21{fill:none;stroke:#F3BB4F;stroke-miterlimit:10;}
	.st22{fill:#EF4136;}
	.st23{fill:#666766;}
	.st24{opacity:0.25;fill:#1E0E0D;}
	.st25{fill:#969696;}
	.st26{fill:#F48461;}
	.st27{opacity:0.5;fill:#2C120E;}
	.st28{fill:#FCD6CC;}
	.st29{fill:#1B1B1B;}
	.st30{fill:#512118;}
	.st31{fill:#BCBCBC;}
	.st32{fill:#332222;}
	.st33{fill:#FFFFFF;}
	.st34{fill:#1C0D0D;}
	.st35{fill:#3E1128;}
	.st36{fill:#6D103D;}
	.st37{fill:#B03D79;}
	.st38{fill:#F6D6D5;}
	.st39{fill:#853A23;}
	.st40{fill:#BC1E70;}
	.st41{fill:#606161;}
	.st42{fill:none;stroke:#EF467A;stroke-width:4;stroke-miterlimit:10;}
</style>
<g id="Ideeen">
</g>
<g id="Dark_Background">
</g>
<g id="Bosachtergrond">
</g>
<g id="Beige_Overlay">
</g>
<g id="Takken__x28_oa_x29_">
	<g>
		<g>
			<path class="st20" d="M0,58.5c2.7-0.6,5.4-1.2,8-1.9c1.3-0.4,2.6-0.7,3.8-1.2c1.2-0.6,2.4-1.2,3.6-1.9c2.4-1.3,4.7-2.8,6.9-4.4
				c1.1-0.8,2.2-1.7,3.1-2.6c0.5-0.5,0.9-1,1.3-1.6c0.4-0.6,0.7-1.2,0.8-1.9c0,0.7-0.2,1.4-0.6,2c-0.3,0.6-0.7,1.2-1.2,1.8
				C25,48,24,49,23,49.9c-2,1.9-4.2,3.7-6.5,5.3c-1.1,0.8-2.3,1.6-3.5,2.4c-1.3,0.8-2.6,1.4-3.9,2c-2.6,1.2-5.1,2.2-7.7,3.3L0,58.5z
				"/>
		</g>
		<path class="st20" d="M58.1,1.1C43.7-2.9,27.6,4.6,17,16.5s-12.9,25-7.2,38.9c1.5,0.4,3,0.8,4.5,1.1c0.1,0,0.1-0.1,0.2-0.1
			c1.2-0.6,2.4-1.2,3.6-1.9c2.4-1.3,4.7-2.8,6.9-4.4c1.1-0.8,2.2-1.7,3.1-2.6c0.5-0.5,0.9-1,1.3-1.6c0.4-0.6,0.7-1.2,0.8-1.9
			c0,0.7-0.2,1.4-0.5,2c-0.3,0.6-0.7,1.2-1.2,1.8c-0.9,1.1-1.8,2.1-2.9,3.1c-2,1.9-4.2,3.7-6.5,5.3c-0.4,0.3-0.9,0.6-1.3,0.9
			c12,1.6,24.3-0.7,32.9-10.4C61.4,34.7,63.7,14.9,58.1,1.1z"/>
	</g>
</g>
<g id="Animales">
</g>
<g id="Rode_panda">
</g>
<g id="Tekst">
</g>
<g id="Grijze_vierkanten">
</g>
</svg>
